<svg width="20" height="20" viewBox="0 0 20 20" fill="none" xmlns="http://www.w3.org/2000/svg">
<path d="M12.1667 12.2589V12.1672H12.2583H12.7089L16.0956 15.5699L16.0964 15.5707C16.2429 15.7171 16.2429 15.9589 16.0964 16.1053C15.95 16.2517 15.7083 16.2517 15.5619 16.1053L12.1667 12.7101V12.2589ZM11.6454 11.1168L11.4012 11.4017L11.1163 11.6459C10.0562 12.5545 8.61262 13.0232 7.07488 12.7658C4.97599 12.4109 3.29459 10.6532 3.03802 8.54025L3.03793 8.53952C2.64428 5.3373 5.33678 2.6448 8.53899 3.03845L8.53973 3.03854C10.6527 3.29511 12.4104 4.97651 12.7653 7.0754C13.0227 8.61314 12.554 10.0567 11.6454 11.1168ZM3.66667 7.91719C3.66667 10.2683 5.56553 12.1672 7.91667 12.1672C10.2678 12.1672 12.1667 10.2683 12.1667 7.91719C12.1667 5.56605 10.2678 3.66719 7.91667 3.66719C5.56553 3.66719 3.66667 5.56605 3.66667 7.91719Z" fill="#323232" stroke="#96A397"/>
</svg>